Coordinates
version=1
nRows=7
nColumns=46
inDegrees=yes

Units are S.I. units (second, meters, Newtons, ...)
Angles are in degrees.

endheader
time	pelvis_tilt	pelvis_list	pelvis_rotation	pelvis_tx	pelvis_ty	pelvis_tz	bb_angle	bb_tx	bb_ty	bb_tz	hip_flexion_r	hip_adduction_r	hip_rotation_r	knee_angle_r	knee_angle_r_beta	ankle_angle_r	subtalar_angle_r	mtp_angle_r	crank_angle_r	hip_flexion_l	hip_adduction_l	hip_rotation_l	knee_angle_l	knee_angle_l_beta	ankle_angle_l	subtalar_angle_l	mtp_angle_l	crank_angle_l	lumbar_extension	lumbar_bending	lumbar_rotation	arm_flex_r	arm_add_r	arm_rot_r	elbow_flex_r	pro_sup_r	wrist_flex_r	wrist_dev_r	arm_flex_l	arm_add_l	arm_rot_l	elbow_flex_l	pro_sup_l	wrist_flex_l	wrist_dev_l
      2.50500000	    -39.29671983	     -1.45968072	    -13.83112932	      0.32498712	      1.08882275	     -0.20124004	      0.00000000	      0.50000000	      0.00000000	      0.25000000	     72.46541032	      7.81692064	     -1.31539802	     55.52284976	      0.96905654	     11.45787807	     -6.28825628	      0.00000000	      0.00000000	     57.54344794	    -13.16859594	     -0.12842412	     68.45487100	      1.19476289	    -24.27041608	    -18.88671956	      0.00000000	      0.00000000	    -57.19958703	      0.64531148	      7.96300324	     56.15267929	    -26.32645101	     38.22273053	    115.44135775	     52.06402930	      0.00000000	      0.00000000	     24.12377198	    -19.83994073	     -6.84718784	    115.51113730	     50.33417013	      0.00000000	      0.00000000
      2.51000000	    -39.06608368	     -0.95752089	    -13.60571565	      0.32475840	      1.08747598	     -0.20215584	      0.00000000	      0.50000000	      0.00000000	      0.25000000	     71.69293609	      7.16311859	     -1.24586017	     54.19418870	      0.94586703	     10.60023969	     -5.72971846	      0.00000000	      0.00000000	     58.12255482	    -12.65672445	     -0.41483769	     70.23410967	      1.22581646	    -23.77782246	    -19.25334724	      0.00000000	      0.00000000	    -57.20901757	      0.51926032	      7.44511008	     56.02071310	    -26.33014492	     38.18000459	    115.51232457	     52.08616129	      0.00000000	      0.00000000	     24.18529535	    -19.79575220	     -6.80676669	    115.48556149	     50.34909655	      0.00000000	      0.00000000
      2.51500000	    -39.03428338	     -0.75493553	    -13.35041233	      0.32434303	      1.08553266	     -0.20306072	      0.00000000	      0.50000000	      0.00000000	      0.25000000	     71.06850676	      6.63665900	     -1.45284527	     52.79179627	      0.92139066	      9.39145803	     -5.16941112	      0.00000000	      0.00000000	     59.06229314	    -12.39404200	     -0.35930308	     72.25372190	      1.26106534	    -22.77993707	    -19.24433565	      0.00000000	      0.00000000	    -57.02214548	      0.65348037	      7.21640507	     55.65631908	    -26.07938194	     37.82829989	    115.72955634	     52.16213315	      0.00000000	      0.00000000	     24.10071751	    -19.80875089	     -6.89796257	    115.63054767	     50.45176731	      0.00000000	      0.00000000
      2.52000000	    -38.79077440	     -0.41683940	    -13.16072663	      0.32417490	      1.08383396	     -0.20393400	      0.00000000	      0.50000000	      0.00000000	      0.25000000	     70.27401170	      6.08233369	     -1.48061841	     51.50623825	      0.89895344	      8.31688840	     -4.59356529	      0.00000000	      0.00000000	     59.78181674	    -12.05358374	     -0.45553818	     74.25633065	      1.29601746	    -22.10336039	    -19.25884184	      0.00000000	      0.00000000	    -57.00730024	      0.61413705	      6.80304937	     55.46683869	    -25.88818606	     37.63126189	    115.87765663	     52.21386508	      0.00000000	      0.00000000	     24.09012035	    -19.79086999	     -6.88533425	    115.65866062	     50.51244273	      0.00000000	      0.00000000
      2.52500000	    -38.51912194	     -0.06121473	    -12.98794493	      0.32405672	      1.08196049	     -0.20466067	      0.00000000	      0.50000000	      0.00000000	      0.25000000	     69.49758709	      5.47867287	     -1.62871539	     50.33703596	      0.87854701	      7.14808107	     -3.88894246	      0.00000000	      0.00000000	     60.54768467	    -11.76264414	     -0.59148296	     76.32009429	      1.33203693	    -21.45983919	    -19.19592867	      0.00000000	      0.00000000	    -57.01135769	      0.53339911	      6.50468128	     55.28193835	    -25.88060869	     37.58609843	    115.92433414	     52.25212926	      0.00000000	      0.00000000	     24.10650593	    -19.81032730	     -6.88379253	    115.68932138	     50.55415197	      0.00000000	      0.00000000
      2.53000000	    -38.23699102	      0.03084940	    -12.85330321	      0.32408679	      1.07991105	     -0.20488486	      0.00000000	      0.50000000	      0.00000000	      0.25000000	     68.59791729	      5.17564382	     -1.75611730	     49.13093217	      0.85749653	      6.16696243	     -3.64777818	      0.00000000	      0.00000000	     61.39776106	    -11.81275120	     -0.51086586	     78.56366786	      1.37119468	    -20.51842179	    -18.35027506	      0.00000000	      0.00000000	    -56.98349819	      0.54171570	      6.35804071	     54.94091350	    -25.68222856	     37.35255184	    116.03245343	     52.32226393	      0.00000000	      0.00000000	     23.98382935	    -19.81854855	     -6.87009295	    115.73767065	     50.64880025	      0.00000000	      0.00000000
      2.53500000	    -37.84526714	      0.46275525	    -12.68440870	      0.32409682	      1.07784808	     -0.20581324	      0.00000000	      0.50000000	      0.00000000	      0.25000000	     67.74962712	      4.58054141	     -1.58668846	     48.12151751	      0.83987892	      5.38583018	     -3.23953403	      0.00000000	      0.00000000	     62.11078662	    -11.43778055	     -0.67653435	     80.69142280	      1.40833101	    -19.93899757	    -18.26325241	      0.00000000	      0.00000000	    -57.00388729	      0.40371458	      5.95431419	     54.72558805	    -25.64828604	     37.23530161	    116.08063219	     52.35236360	      0.00000000	      0.00000000	     24.00245794	    -19.84031695	     -6.79975041	    115.71452052	     50.68836681	      0.00000000	      0.00000000
